{
  "accessors": [
    {
      "bufferView": 2,
      "componentType": 5126,
      "count": 40955,
      "max": [
        1.8748749494552612,
        9.3125457763671875,
        2.7434298992156982
      ],
      "min": [
        -2.4216399192810059,
        5.9110569953918457,
        -8.0455179214477539
      ],
      "type": "VEC3"
    },
    {
      "bufferView": 2,
      "byteOffset": 491460,
      "componentType": 5126,
      "count": 40955,
      "max": [
        0.99999773502349854,
        0.99994933605194092,
        0.99860465526580811
      ],
      "min": [
        -0.99996602535247803,
        -0.99988067150115967,
        -0.99997985363006592
      ],
      "type": "VEC3"
    },
    {
      "bufferView": 3,
      "componentType": 5126,
      "count": 40955,
      "max": [
        0.99998956918716431,
        0.99993526935577393,
        0.99997186660766602,
        1
      ],
      "min": [
        -0.99997341632843018,
        -0.99994957447052002,
        -0.99998700618743896,
        -1
      ],
      "type": "VEC4"
    },
    {
      "bufferView": 1,
      "componentType": 5126,
      "count": 40955,
      "max": [
        0.99897998571395874,
        0.99977797269821167
      ],
      "min": [
        4.8000001697801054e-05,
        0.0039059999398887157
      ],
      "type": "VEC2"
    },
    {
      "bufferView": 0,
      "componentType": 5125,
      "count": 114492,
      "max": [
        40954
      ],
      "min": [
        0
      ],
      "type": "SCALAR"
    }
  ],
  "asset": {
    "extras": {
      "author": "arck-project (https://sketchfab.com/arck-project)",
      "license": "CC-BY-4.0 (http://creativecommons.org/licenses/by/4.0/)",
      "source": "https://sketchfab.com/3d-models/chief-regalia-81435d99c4634e5784e9e38ae6454a7f",
      "title": "Chief Regalia"
    },
    "generator": "Sketchfab-4.33.0",
    "version": "2.0"
  },
  "bufferViews": [
    {
      "buffer": 0,
      "byteLength": 457968,
      "byteOffset": 0,
      "name": "floatBufferViews",
      "target": 34963
    },
    {
      "buffer": 0,
      "byteLength": 327640,
      "byteOffset": 457968,
      "byteStride": 8,
      "name": "floatBufferViews",
      "target": 34962
    },
    {
      "buffer": 0,
      "byteLength": 982920,
      "byteOffset": 785608,
      "byteStride": 12,
      "name": "floatBufferViews",
      "target": 34962
    },
    {
      "buffer": 0,
      "byteLength": 655280,
      "byteOffset": 1768528,
      "byteStride": 16,
      "name": "floatBufferViews",
      "target": 34962
    }
  ],
  "buffers": [
    {
      "byteLength": 2423808,
      "uri": "scene.bin"
    }
  ],
  "extensionsUsed": [
    "KHR_materials_unlit"
  ],
  "images": [
    {
      "uri": "textures/Chief_Regalia_GO_baseColor.jpeg"
    }
  ],
  "materials": [
    {
      "doubleSided": true,
      "extensions": {
        "KHR_materials_unlit": {}
      },
      "name": "Chief_Regalia_GO",
      "pbrMetallicRoughness": {
        "baseColorFactor": [
          1,
          1,
          1,
          1
        ],
        "baseColorTexture": {
          "index": 0,
          "texCoord": 0
        },
        "metallicFactor": 0,
        "roughnessFactor": 1
      }
    }
  ],
  "meshes": [
    {
      "primitives": [
        {
          "attributes": {
            "NORMAL": 1,
            "POSITION": 0,
            "TANGENT": 2,
            "TEXCOORD_0": 3
          },
          "indices": 4,
          "material": 0,
          "mode": 4
        }
      ]
    }
  ],
  "nodes": [
    {
      "children": [
        1
      ],
      "name": "RootNode (gltf orientation matrix)",
      "rotation": [
        -0.70710678118654746,
        -0,
        -0,
        0.70710678118654757
      ]
    },
    {
      "children": [
        2
      ],
      "matrix": [
        1,
        0,
        0,
        0,
        0,
        0.98489034175872803,
        0.17317931354045868,
        0,
        0,
        -0.17317931354045868,
        0.98489034175872803,
        0,
        0,
        0.096227310597896576,
        -1.1632161140441895,
        1
      ],
      "name": "RootNode (model correction matrix)"
    },
    {
      "children": [
        3
      ],
      "name": "Chief_Regalia_GO_.OBJ.cleaner.materialmerger.gles"
    },
    {
      "mesh": 0,
      "name": ""
    }
  ],
  "samplers": [
    {
      "magFilter": 9729,
      "minFilter": 9987,
      "wrapS": 10497,
      "wrapT": 10497
    }
  ],
  "scene": 0,
  "scenes": [
    {
      "name": "OSG_Scene",
      "nodes": [
        0
      ]
    }
  ],
  "textures": [
    {
      "sampler": 0,
      "source": 0
    }
  ]
}

